<svg class="svg-icon" viewBox="0 0 1024 1024" version="1.1" xmlns="http://www.w3.org/2000/svg"><path d="M512 836.266667c-177.493333 0-324.266667-146.773333-324.266667-324.266667S334.506667 187.733333 512 187.733333s324.266667 146.773333 324.266667 324.266667-146.773333 324.266667-324.266667 324.266667z m0-614.4c-160.426667 0-290.133333 129.706667-290.133333 290.133333s129.706667 290.133333 290.133333 290.133333 290.133333-129.706667 290.133333-290.133333-129.706667-290.133333-290.133333-290.133333zM512 153.6c-10.24 0-17.066667-6.826667-17.066667-17.066667V34.133333c0-10.24 6.826667-17.066667 17.066667-17.066666s17.066667 6.826667 17.066667 17.066666v102.4c0 10.24-6.826667 17.066667-17.066667 17.066667zM324.266667 204.8c-6.826667 0-10.24-3.413333-13.653334-10.24L259.413333 105.813333c-6.826667-6.826667-3.413333-17.066667 3.413334-23.893333 10.24-3.413333 20.48 0 23.893333 6.826667l51.2 88.746666c3.413333 6.826667 3.413333 17.066667-6.826667 23.893334 0 3.413333-3.413333 3.413333-6.826666 3.413333zM187.733333 341.333333c-3.413333 0-6.826667 0-10.24-3.413333L88.746667 286.72c-6.826667-3.413333-10.24-13.653333-6.826667-20.48s13.653333-10.24 23.893333-6.826667l88.746667 51.2c10.24 3.413333 10.24 13.653333 6.826667 23.893334-3.413333 3.413333-10.24 6.826667-13.653334 6.826666zM136.533333 529.066667H34.133333c-10.24 0-17.066667-6.826667-17.066666-17.066667s6.826667-17.066667 17.066666-17.066667h102.4c10.24 0 17.066667 6.826667 17.066667 17.066667s-6.826667 17.066667-17.066667 17.066667zM98.986667 768c-6.826667 0-10.24-3.413333-13.653334-10.24-3.413333-6.826667-3.413333-17.066667 6.826667-23.893333L180.906667 682.666667c6.826667-3.413333 17.066667-3.413333 23.893333 6.826666 0 10.24 0 20.48-10.24 23.893334l-88.746667 51.2c-3.413333 3.413333-3.413333 3.413333-6.826666 3.413333zM273.066667 942.08c-3.413333 0-6.826667 0-10.24-3.413333-6.826667-3.413333-10.24-13.653333-6.826667-23.893334L307.2 826.026667c6.826667-6.826667 17.066667-6.826667 27.306667-3.413334s10.24 13.653333 6.826666 23.893334l-51.2 88.746666c-6.826667 3.413333-10.24 6.826667-17.066666 6.826667zM512 1006.933333c-10.24 0-17.066667-6.826667-17.066667-17.066666v-102.4c0-10.24 6.826667-17.066667 17.066667-17.066667s17.066667 6.826667 17.066667 17.066667v102.4c0 10.24-6.826667 17.066667-17.066667 17.066666zM750.933333 942.08c-6.826667 0-10.24-3.413333-13.653333-10.24l-51.2-88.746667c-3.413333-6.826667-3.413333-17.066667 6.826667-23.893333 6.826667-3.413333 17.066667-3.413333 23.893333 6.826667l51.2 88.746666c3.413333 6.826667 3.413333 17.066667-6.826667 23.893334-3.413333 3.413333-6.826667 3.413333-10.24 3.413333zM925.013333 768c-3.413333 0-6.826667 0-10.24-3.413333l-88.746666-51.2c-6.826667-3.413333-10.24-13.653333-6.826667-23.893334s13.653333-10.24 23.893333-6.826666l88.746667 51.2c6.826667 3.413333 10.24 13.653333 6.826667 23.893333 0 6.826667-6.826667 10.24-13.653334 10.24zM989.866667 529.066667h-102.4c-10.24 0-17.066667-6.826667-17.066667-17.066667s6.826667-17.066667 17.066667-17.066667h102.4c10.24 0 17.066667 6.826667 17.066666 17.066667s-6.826667 17.066667-17.066666 17.066667zM836.266667 341.333333c-6.826667 0-10.24-3.413333-13.653334-10.24-3.413333-6.826667-3.413333-17.066667 6.826667-20.48l88.746667-51.2c6.826667-3.413333 17.066667-3.413333 23.893333 6.826667 3.413333 6.826667 3.413333 17.066667-6.826667 23.893333L846.506667 341.333333h-10.24zM699.733333 204.8c-3.413333 0-6.826667 0-10.24-3.413333-6.826667-3.413333-10.24-13.653333-6.826666-23.893334l51.2-88.746666c3.413333-6.826667 13.653333-10.24 23.893333-6.826667 6.826667 3.413333 10.24 13.653333 6.826667 23.893333l-51.2 88.746667c-3.413333 6.826667-6.826667 10.24-13.653334 10.24z" fill="current" stroke="current" /></svg>