<?xml version="1.0" encoding="utf-8"?>
<!-- Generator: Adobe Illustrator 22.0.1, SVG Export Plug-In . SVG Version: 6.00 Build 0)  -->
<svg version="1.1" id="Layer_1" xmlns="http://www.w3.org/2000/svg" xmlns:xlink="http://www.w3.org/1999/xlink" x="0px" y="0px"
	 viewBox="0 0 1919.8 243.2" style="enable-background:new 0 0 1919.8 243.2;" xml:space="preserve">
<g>
	<path fill="current" d="M137,190.4c-1.3,0-2.7,0-4,0c-4.9-1-9.5-3-14.1-5.1c-11.5-5.5-21.8-12.8-32-20.3c-6.7-4.9-13.4-9.7-20.4-14.1
		c-8.6-5.4-18.1-8.6-28.4-9.3c-8.9-0.6-17.6,0.6-26.2,2.8c-4,1.1-8,2.3-12,3.5C0,98.6,0,49.3,0,0c639.9,0,1279.8,0,1919.8,0
		c0,62.6,0,125.3,0,187.9c-0.1-0.2-0.3-0.4-0.3-0.7c-11.5-36.6-46-63.4-81.1-67.3c-14-1.6-27.5,0-40.5,5.5
		c-13.3,5.7-26,12.6-38.2,20.4c-7.1,4.6-14.1,9.2-21.2,13.6c-9.1,5.6-19,8.3-29.7,7.3c-6.3-0.6-12.8-1.4-18.9-3
		c-11.2-3-22.3-6.6-33.4-10.2c-13.5-4.3-27.1-5.7-40.8-1.5c-6.9,2.1-13.5,4.7-20.3,7.2c-10.3,3.8-20.9,5.2-31.8,3.2
		c-9.5-1.7-18.3-5.2-26.9-9.5c-14.5-7.1-28.1-15.6-41.8-24.2c-10.8-6.7-21.5-13.5-33.2-18.6c-15.3-6.7-31-8.9-47.5-6.1
		c-11.9,2.1-23.3,5.9-34.1,11.2c-10.7,5.3-21.2,11-31.7,16.6c-15.1,8.1-30.8,14.6-48.1,15.9c-8.5,0.6-16.9,0.5-24.9-2.7
		c-7.5-3-14.9-6.4-22.4-9.4c-3.8-1.5-7.6-3.2-11.6-3.7c-6.4-0.8-12.7-1.6-18.9-3.3c-4.7-1.3-9.3-1-13.6,1.2c-4.7,2.4-9.4,5-14,7.6
		c-6.2,3.6-12.3,7.5-18.6,10.8c-16.3,8.5-33.6,13.8-52.1,14.1c-13.1,0.2-26-1.9-38.4-6.1c-13.3-4.4-26.3-9.3-39.4-14.2
		c-17.1-6.4-34.3-12.4-52.4-15.7c-15.2-2.8-30.4-2.5-45.5,1.3c-11.5,2.9-22.2,7.6-32.9,12.7c-11.4,5.5-22.7,11.3-34.7,15.5
		c-14.7,5.2-29.9,7.9-45.5,6.6c-8.2-0.6-16.3-1.9-24.4-3.1c-19.6-2.9-38.3-8.8-55.7-18.4c-7.1-3.9-14.4-7.3-22.1-10
		c-11-3.8-22.2-5.4-33.8-3.9c-8.5,1.1-16.7,3.3-24.7,6.4c-7.4,2.9-14.7,6.1-22.1,9c-9.7,3.8-19.8,5.1-30.1,3.2
		c-10-1.8-19.6-4.9-29-8.7c-1.2-0.5-2.4-1.2-3.5-1.9c-5.4-3.2-9.7-7.5-13.8-12.1c-4.2-4.8-8.2-9.7-12.7-14.2
		c-7.5-7.6-16.7-11.2-27.5-11.1c-14.2,0.1-27,4.3-37.8,13.5c-6.9,5.9-13.3,12.3-19.6,18.7c-8.8,9-18.1,17.4-28.3,24.8
		c-19,13.9-39.9,23.6-63,28.4c-11.4,2.3-23,3.8-34.6,5c-14.9,1.5-29.7,0.9-44.5-1.5c-13.3-2.2-26.3-5.7-39.3-9.3
		c-15.6-4.3-31-9-47.2-10.8c-11.4-1.3-22.8-1.2-34.1,1.3c-14.1,3.1-27.1,9-39.1,17C144.8,186.9,141.3,189.3,137,190.4z"/>
</g>
</svg>
